<svg preserveAspectRatio="none" width="100%" height="100%" overflow="visible" style="display: block;" viewBox="0 0 18 18" fill="none" xmlns="http://www.w3.org/2000/svg">
<path id="Vector" fill-rule="evenodd" clip-rule="evenodd" d="M18.0009 0.75C18.0009 0.551088 17.9219 0.360322 17.7813 0.21967C17.6406 0.0790178 17.4499 0 17.2509 0H8.25095C8.05203 0 7.86127 0.0790178 7.72062 0.21967C7.57996 0.360322 7.50095 0.551088 7.50095 0.75C7.50095 0.948912 7.57996 1.13968 7.72062 1.28033C7.86127 1.42098 8.05203 1.5 8.25095 1.5H15.4404L0.219947 16.719C0.150215 16.7887 0.0949012 16.8715 0.0571625 16.9626C0.0194239 17.0537 0 17.1514 0 17.25C0 17.3486 0.0194239 17.4463 0.0571625 17.5374C0.0949012 17.6285 0.150215 17.7113 0.219947 17.781C0.289679 17.8507 0.372463 17.906 0.463572 17.9438C0.554681 17.9815 0.652331 18.0009 0.750947 18.0009C0.849563 18.0009 0.947213 17.9815 1.03832 17.9438C1.12943 17.906 1.21222 17.8507 1.28195 17.781L16.5009 2.5605V9.75C16.5009 9.94891 16.58 10.1397 16.7206 10.2803C16.8613 10.421 17.052 10.5 17.2509 10.5C17.4499 10.5 17.6406 10.421 17.7813 10.2803C17.9219 10.1397 18.0009 9.94891 18.0009 9.75V0.75Z" fill="var(--fill-0, black)"/>
</svg>
