<svg xmlns="http://www.w3.org/2000/svg" width="197" height="114" viewBox="0 0 197 114" fill="none">
<path d="M0.899103 81.7545C-0.525534 78.7513 0.0850784 72.9653 0.430669 69.7684C0.436354 69.71 0.442042 69.6517 0.447732 69.5934C0.529334 68.8342 0.554592 68.1222 0.583294 67.2755C0.655046 65.2585 0.735377 62.5836 1.75146 56.8346C1.75106 56.395 1.75268 55.936 1.75551 55.5054C1.7647 54.2438 1.788 52.9798 1.83277 51.6836C1.88301 50.2643 1.94779 48.8166 2.07282 47.1599C2.14024 46.3096 2.20672 45.4773 2.3747 44.2071C2.47598 43.5325 2.53036 42.9165 2.92505 41.2864C3.0276 40.8841 3.17715 40.3253 3.43344 39.59C3.77787 38.7153 3.962 37.8524 5.47068 35.4999C6.23894 34.4432 7.30581 32.6813 10.5741 30.5313C13.4513 28.3847 20.0272 27.2257 23.5715 28.342C27.2617 29.2808 28.7078 30.4819 29.6641 31.1042C30.5866 31.7721 30.9406 32.1145 31.0586 32.2119C33.3078 34.1993 38.0489 37.9796 41.6463 41.0125C49.2629 47.3729 56.7961 53.9347 64.2852 60.5247C64.4673 60.6512 64.6525 60.7797 64.8394 60.9094C68.4548 63.4187 72.9444 66.5209 75.3745 68.9627C78.4827 72.082 80.4739 74.3028 82.1157 76.1537C82.3319 76.3398 82.5438 76.5226 82.7512 76.7018C84.005 77.78 85.2629 78.8547 86.3832 79.7837C86.9373 80.2439 87.4655 80.6703 87.8342 80.9688C88.0103 81.1142 88.149 81.2254 88.1211 81.2463C88.0511 81.2659 87.9992 81.1877 86.8383 80.9033C86.2405 80.7955 85.2965 80.5178 83.25 80.7539C81.2468 80.8708 77.6518 82.6694 76.1823 84.8387C74.617 86.9764 74.4559 88.2841 74.2775 89.0808C74.1519 89.8276 74.1654 90.2107 74.1734 90.4302C74.2019 90.8633 74.2494 90.7977 74.2606 90.6656C74.2747 90.5224 74.268 90.2637 74.248 89.9665C74.1603 88.7343 73.9197 87.0721 73.6773 85.4086C72.6735 78.562 71.5577 71.6682 70.3285 64.8115C69.5521 60.4826 68.7255 56.1599 67.8454 51.8387C67.0352 47.8574 66.1934 43.8739 65.3461 39.862C65.2002 39.4139 65.0547 38.9766 64.9104 38.5506C64.2989 36.7315 63.6852 34.9864 63.1184 33.3308C62.1323 30.4533 61.2885 27.8361 60.8346 25.5823C60.1642 22.0543 59.7438 18.466 60.0566 13.531C60.1517 12.5539 60.1557 11.7264 60.6579 9.59506C60.8076 9.02906 60.9812 8.36095 61.4497 7.28249C61.9947 6.24167 62.5184 4.50011 65.5951 2.16781C67.1102 1.05331 69.4809 0.1509 71.5208 0.0327856C73.5765 -0.114757 75.0951 0.264859 76.1062 0.589645C78.1111 1.29046 78.7049 1.82091 79.0441 2.01683C79.4819 2.31328 79.5978 2.41656 79.7376 2.52728C79.8662 2.63201 79.9898 2.73333 80.1063 2.82954C80.3467 3.02697 80.5748 3.21515 80.816 3.41091C81.3449 3.84446 81.862 4.26411 82.3452 4.65051C85.2862 6.37962 88.2697 8.10464 91.2601 9.8265C91.3827 10.0503 91.5069 10.2812 91.636 10.5191C93.0115 13.0617 95.3811 14.8406 99.0891 17.2904C99.6788 17.6801 100.32 18.098 101.016 18.5512C103.078 19.8945 105.486 21.4635 108.251 23.4193C110.054 24.6943 110.608 25.8114 111.109 26.7562C111.256 27.0336 111.388 27.2893 111.535 27.5225C112.04 28.3223 113.056 28.4842 114.243 28.6671C115.765 28.892 117.624 29.1826 119.111 30.9999C123.855 36.7927 127.334 37.2567 129.942 37.5925C130.71 37.6931 131.411 37.7883 132.051 38.0055C134.094 38.6891 136.303 40.7857 137.801 42.6582C138.966 44.1278 142.293 45.6052 144.99 46.4783C145.998 46.8008 147.171 47.5592 148.552 48.454C149.963 49.3684 151.63 50.4509 153.55 51.3274C158.434 53.5641 161 54.7756 163.079 55.7621C163.668 56.0414 164.213 56.3004 164.762 56.5587C166.503 57.3777 168.59 58.4779 170.719 59.6028C173.251 60.9382 175.832 62.3003 177.876 63.2048C182.463 66.6438 187.002 70.156 191.544 73.6644C193.879 75.471 195.496 78.1507 196.012 81.171C196.526 84.1924 195.908 87.2953 194.25 89.8512C192.592 92.4072 190.01 94.2361 187.039 94.9957C184.069 95.7533 180.957 95.3649 178.354 93.9626C173.12 91.1381 167.886 88.3101 162.707 85.397C156.397 81.847 150.181 78.1781 144.127 74.2241C139.897 71.4618 135.71 68.6378 131.556 65.7636C131.125 65.4656 130.696 65.1674 130.269 64.8704C126.306 63.1734 122.399 61.4305 119.759 59.9911C117.609 58.8221 116.298 57.484 115.211 56.3619C114.446 55.5785 113.778 54.8912 112.976 54.4048C112.545 54.1429 111.924 53.7913 111.195 53.3792C108.208 51.6912 103.13 48.8186 99.1088 45.2988C97.3011 43.7217 95.3949 41.7017 93.5371 39.7472C91.419 37.5149 89.4086 35.3975 87.8955 34.2718C87.5015 33.9803 87.1457 33.7549 86.8277 33.6048C84.0184 32.2792 81.2454 30.0028 78.8384 28.0154C76.5022 26.0932 74.4813 24.4228 72.969 24.0264C71.135 23.5345 70.0235 22.4995 68.3182 20.909C68.1533 20.7566 67.9969 20.6085 67.8254 20.4494C67.6866 20.3116 67.3931 20.0729 67.5873 20.1574C67.6755 20.1743 67.9746 20.4245 69.1938 20.8761C70.2078 21.2919 73.6581 22.0414 76.8182 20.343C79.8095 18.6778 80.4727 16.9467 80.9021 16.1813C81.2961 15.3321 81.3737 14.9154 81.4408 14.6171C81.5447 14.0585 81.4994 13.9694 81.4756 13.9541C81.4457 13.9496 81.4087 14.062 81.3786 14.2217C81.3358 14.4505 81.3039 14.7482 81.2881 15.0959C81.2077 17.31 81.0422 19.4321 80.8854 21.1153C80.6842 23.5402 80.5829 25.4311 81.724 28.0384C82.7389 30.3515 83.6245 32.7788 84.0625 34.9771C84.1702 35.517 84.2544 36.0691 84.3004 36.5776C84.408 37.7475 84.6869 39.0492 84.9844 40.4183C85.3764 42.2222 85.7957 44.1228 85.8731 45.9234C85.9372 47.409 85.5998 48.7142 85.3034 49.8764C85.2107 50.2371 85.1226 50.5835 85.0512 50.917C85.2948 52.0653 85.5427 53.2106 85.7982 54.3559C85.9301 54.5226 86.0739 54.6969 86.2228 54.8787C86.9702 55.7918 87.888 56.913 88.5415 58.4037C89.5757 60.7617 89.7096 62.9943 89.8509 65.3506C89.9615 67.1877 90.0772 69.1 90.6304 71.2007C91.0088 72.638 91.5979 74.2358 92.1825 75.8221C92.8739 77.6992 93.5574 79.5558 93.8768 81.1008C93.962 81.5127 94.0183 81.8804 94.0479 82.2398C94.1033 82.9041 93.8584 83.548 93.6091 84.1774C93.6074 84.1803 93.6057 84.1832 93.604 84.186C93.5871 84.2292 93.5716 84.2758 93.5551 84.3204C93.8432 85.4076 94.1417 86.5093 94.4125 87.9895C94.5376 88.7338 94.6905 89.5564 94.6979 90.9764C94.6821 91.6704 94.6924 92.5851 94.2454 94.1778C93.8596 95.6304 92.3853 98.8456 88.9271 100.48C85.6236 101.953 83.5766 101.465 82.347 101.301C81.1537 101.076 80.4326 100.809 79.8034 100.574C78.6441 100.126 77.8974 99.7403 77.2295 99.4007C75.898 98.708 74.8868 98.1161 73.8881 97.5318C73.4868 97.3711 73.1384 97.2428 72.7566 97.0878C71.3716 96.538 70.0869 96.0276 68.9611 95.7327C68.632 95.6523 68.3136 95.5886 68.0128 95.5499C66.6235 95.3786 63.8944 93.8743 61.0566 92.2999C59.1928 91.2656 57.2721 90.1953 55.6145 89.4354C54.6516 88.9956 54.0835 88.0981 53.5034 87.1763C52.9621 86.3162 52.4046 85.4315 51.4997 84.8753C51.046 84.5965 50.4862 84.3777 49.8958 84.1497C49.3749 83.9481 48.8201 83.7323 48.2842 83.454C47.7863 83.195 46.9184 82.2887 45.807 81.1288C45.1198 80.4117 44.3395 79.5983 43.495 78.7773C40.8815 77.1225 38.272 75.4549 35.6756 73.7735C34.9627 73.6584 34.2507 73.6686 33.5613 73.8503C33.0668 73.9807 32.564 74.2028 32.0499 74.4299C31.345 74.7347 30.6155 75.049 29.8568 75.1666C29.2676 75.2611 28.7601 75.0939 28.6011 74.7513C28.5267 74.5914 28.5258 74.3946 28.5248 74.2165C28.5237 74.0126 28.5227 73.8311 28.4133 73.7541C28.3345 73.6989 28.1848 73.7303 27.9996 73.7652C27.7049 73.8216 27.323 73.8935 27.0026 73.6653C25.8051 72.8119 24.5337 71.7396 23.2751 70.6768C22.4229 69.9563 21.5612 69.2293 20.7777 68.6148C20.2583 68.2083 19.8046 67.8722 19.3329 67.5563C18.0041 66.6703 16.4535 64.9585 14.8834 63.2217C13.7844 62.0069 12.6872 60.7908 11.5998 59.7844C10.9361 59.161 9.99183 58.5294 8.82869 57.6627C8.95165 57.7299 9.33771 58.3248 11.7344 59.7047C12.9442 60.3468 14.9403 61.3338 18.1332 61.6587C21.291 62.0522 25.4765 61.0472 27.8454 59.6308C32.9176 56.5022 33.4097 54.4958 34.3042 53.2424C34.6167 52.6925 34.8474 52.218 35.0323 51.805C35.186 51.4626 35.3036 51.1725 35.4043 50.9091C35.7676 49.9405 35.8601 49.5629 35.9583 49.2458C36.0406 48.9733 36.0894 48.8141 36.1274 48.7151C36.2478 48.4047 36.289 48.5538 36.3341 48.7087C36.3751 48.8827 36.4027 49.1234 36.4109 49.3917C36.4278 49.9189 36.3682 50.5205 36.1552 51.0666C36.0679 51.3053 35.5937 51.5478 34.9996 51.9122C34.5795 52.1447 34.0982 52.4579 33.6541 52.7855C33.6156 53.8998 33.5753 55.0439 33.531 56.2058C33.5142 56.6369 33.496 57.1123 33.4777 57.5536C33.5395 57.611 33.6022 57.6705 33.6664 57.7304C33.6679 57.7313 33.6694 57.7323 33.6709 57.7332C35.1184 59.0969 37.1035 60.943 35.8722 63.5294C35.5593 64.1837 34.9908 64.5905 34.4791 64.9656C33.9766 65.3301 33.5272 65.6488 33.4288 66.1341C33.3173 66.6906 33.6179 67.3257 33.9451 68.0446C34.4046 69.0342 34.9188 70.1495 34.4251 71.2626C34.3914 71.3381 34.3545 71.4193 34.3174 71.504C33.9662 72.3087 33.4472 73.5025 32.4111 74.6895C32.118 78.2253 31.7844 81.7675 31.4251 85.3104C30.8587 90.899 30.229 96.5049 29.5979 102.092C29.5617 102.413 29.5255 102.734 29.4894 103.055C29.1607 105.936 27.7579 108.7 25.5124 110.738C23.2638 112.776 20.3738 113.921 17.3846 113.921C14.3957 113.921 11.5076 112.776 9.25913 110.738C7.01347 108.7 5.61089 105.937 5.28219 103.055C5.24602 102.734 5.20984 102.413 5.17368 102.092C4.68002 97.7214 4.18937 93.3284 3.7403 88.935C3.67858 88.6859 3.61892 88.4382 3.56302 88.1926C3.14711 86.3519 2.30944 84.6473 1.47164 82.9364C1.2792 82.5434 1.0864 82.1482 0.899103 81.7545Z" fill="white"/>
</svg>

