<svg preserveAspectRatio="none" width="100%" height="100%" overflow="visible" style="display: block;" viewBox="0 0 17 17" fill="none" xmlns="http://www.w3.org/2000/svg">
<g id="Layer_31">
<path id="Shape" fill-rule="evenodd" clip-rule="evenodd" d="M11.925 10.75L16.425 15.2417C16.5828 15.3981 16.6715 15.6111 16.6715 15.8333C16.6715 16.0555 16.5828 16.2685 16.425 16.425C16.2685 16.5828 16.0555 16.6715 15.8333 16.6715C15.6111 16.6715 15.3981 16.5828 15.2417 16.425L10.75 11.925C9.58538 12.8392 8.14721 13.3352 6.66667 13.3333C2.98477 13.3333 0 10.3486 0 6.66667C0 2.98477 2.98477 0 6.66667 0C10.3486 0 13.3333 2.98477 13.3333 6.66667C13.3352 8.14721 12.8392 9.58538 11.925 10.75ZM6.66667 1.66667C3.90524 1.66667 1.66667 3.90524 1.66667 6.66667C1.66667 9.42809 3.90524 11.6667 6.66667 11.6667C9.42809 11.6667 11.6667 9.42809 11.6667 6.66667C11.6667 3.90524 9.42809 1.66667 6.66667 1.66667Z" fill="var(--fill-0, white)"/>
</g>
</svg>
