<svg preserveAspectRatio="none" width="100%" height="100%" overflow="visible" style="display: block;" viewBox="0 0 25 16" fill="none" xmlns="http://www.w3.org/2000/svg">
<g id="Mode_Isolation" clip-path="url(#clip0_3003_32729)">
<path id="Vector" d="M14.8503 10C15.9997 9.28286 16.7615 8.05678 16.7615 6.66667C16.7615 4.46057 14.8503 2.66667 12.5 2.66667C10.1497 2.66667 8.23848 4.46057 8.23848 6.66667C8.23848 8.05678 8.99803 9.28286 10.1497 10C7.54616 10.9022 5.68202 13.2471 5.68202 16H6.81798C6.81798 13.0599 9.36772 10.6667 12.5 10.6667C15.6323 10.6667 18.182 13.0599 18.182 16H19.318C19.318 13.2471 17.4538 10.9022 14.8503 10ZM9.37444 6.66667C9.37444 5.04942 10.777 3.73291 12.5 3.73291C14.223 3.73291 15.6256 5.04942 15.6256 6.66667C15.6256 8.28391 14.223 9.60042 12.5 9.60042C10.777 9.60042 9.37444 8.28391 9.37444 6.66667Z" fill="var(--fill-0, #787878)"/>
<path id="Vector_2" d="M20.5324 7.33333C21.6818 6.61619 22.4435 5.39012 22.4435 4C22.4435 1.7939 20.5324 0 18.182 0C17.0438 0 16.0109 0.422713 15.2447 1.10831C14.9624 1.36278 14.7159 1.65089 14.5165 1.97056C14.8705 2.10515 15.2088 2.27129 15.5203 2.47108C15.7219 2.16404 15.9796 1.89485 16.282 1.67613C16.8086 1.29548 17.465 1.06835 18.1798 1.06835C19.9028 1.06835 21.3053 2.38486 21.3053 4.0021C21.3053 5.34385 20.3374 6.47739 19.0245 6.8244C18.7556 6.8959 18.4733 6.93586 18.1798 6.93586C18.079 6.93586 17.9804 6.92955 17.8818 6.92114C17.8616 7.30599 17.7966 7.67823 17.6913 8.03365C17.8527 8.02103 18.014 8 18.1798 8C18.4106 8 18.6369 8.01682 18.8609 8.04206C21.6728 8.35962 23.8618 10.6099 23.8618 13.3333H24.9978C24.9978 10.5804 23.1336 8.23554 20.5301 7.33333H20.5324Z" fill="var(--fill-0, #787878)"/>
<path id="Vector_3" d="M6.81798 8C6.98378 8 7.1451 8.01893 7.30642 8.03365C7.19887 7.67613 7.13614 7.30389 7.11597 6.92114C7.01739 6.92955 6.9188 6.93586 6.81798 6.93586C6.52447 6.93586 6.24216 6.8959 5.97329 6.8244C4.66033 6.47739 3.69242 5.34595 3.69242 4.0021C3.69242 2.38486 5.095 1.06835 6.81798 1.06835C7.53271 1.06835 8.18919 1.29758 8.71572 1.67613C9.01819 1.89485 9.2781 2.16404 9.4775 2.47108C9.79118 2.27129 10.1273 2.10515 10.4813 1.97056C10.2796 1.653 10.0354 1.36278 9.75309 1.10831C8.98907 0.422713 7.95393 0 6.81574 0C4.46765 0 2.55646 1.7939 2.55646 4C2.55646 5.39012 3.31601 6.61619 4.46765 7.33333C1.86413 8.23554 0 10.5804 0 13.3333H1.13596C1.13596 10.6099 3.32497 8.35962 6.13685 8.04206C6.36091 8.01682 6.5872 8 6.81798 8Z" fill="var(--fill-0, #787878)"/>
</g>
<defs>
<clipPath id="clip0_3003_32729">
<rect width="25" height="16" fill="white"/>
</clipPath>
</defs>
</svg>
