<svg preserveAspectRatio="none" width="100%" height="100%" overflow="visible" style="display: block;" viewBox="0 0 16 22" fill="none" xmlns="http://www.w3.org/2000/svg">
<g id="Vector">
<path d="M7.44529 21.713C7.56893 21.8923 7.77711 22 8 22C8.22289 22 8.43107 21.8923 8.55471 21.713C10.1324 19.425 12.4563 16.5993 14.0757 13.7256C15.3705 11.4278 16 9.46799 16 7.73438C16 3.46964 12.4112 0 8 0C3.5888 0 0 3.46964 0 7.73438C0 9.46799 0.629467 11.4278 1.92431 13.7256C3.54249 16.5972 5.8708 19.4297 7.44529 21.713ZM8 1.28906C11.676 1.28906 14.6667 4.18043 14.6667 7.73438C14.6667 9.24705 14.0904 11.0051 12.9048 13.1089C11.509 15.586 9.51707 18.0987 8 20.2112C6.48316 18.099 4.49111 15.5861 3.09516 13.1089C1.90964 11.0051 1.33333 9.24705 1.33333 7.73438C1.33333 4.18043 4.324 1.28906 8 1.28906Z" fill="var(--fill-0, #787878)"/>
<path d="M8 11.6016C10.2056 11.6016 12 9.86674 12 7.73438C12 5.60201 10.2056 3.86719 8 3.86719C5.7944 3.86719 4 5.60201 4 7.73438C4 9.86674 5.7944 11.6016 8 11.6016Z" fill="var(--fill-0, #787878)"/>
</g>
</svg>
