<svg preserveAspectRatio="none" width="100%" height="100%" overflow="visible" style="display: block;" viewBox="0 0 25 18" fill="none" xmlns="http://www.w3.org/2000/svg">
<path id="Vector" d="M19.499 14.7051C19.4918 14.841 19.4007 15.0561 19.084 15.3301C18.762 15.6086 18.2685 15.8924 17.6211 16.1455C16.3305 16.6501 14.5188 17 12.501 17C10.4829 17 8.6706 16.6502 7.37988 16.1455C6.73252 15.8924 6.23902 15.6086 5.91699 15.3301C5.59808 15.0542 5.50803 14.8379 5.50195 14.7021L6.02832 9.69531L10.9834 11.4863V11.4854C11.4696 11.662 11.9883 11.75 12.501 11.75C13.0146 11.75 13.5289 11.6624 14.0176 11.4863H14.0186L18.9717 9.69531L19.499 14.7051ZM12.501 0.5C12.7586 0.500043 13.0138 0.543847 13.2568 0.629883V0.630859L24.2139 4.58789V4.58691C24.3877 4.6524 24.501 4.81716 24.501 5C24.501 5.18722 24.3835 5.35176 24.2148 5.41211H24.2139L13.2529 9.35742C13.0098 9.44353 12.7548 9.48824 12.4971 9.48828C12.2388 9.48828 11.9828 9.44382 11.7393 9.35742H11.7402L6.34668 7.41113C6.48313 7.33025 6.62639 7.25857 6.77637 7.19922L6.77734 7.2002L12.9092 4.78906C13.4902 4.562 13.7685 3.90742 13.5449 3.33398C13.318 2.75255 12.6616 2.47437 12.0879 2.69824H12.0869L5.9541 5.1084C5.10653 5.44141 4.38607 5.98163 3.83105 6.64844C3.82743 6.65279 3.82378 6.65764 3.82031 6.66211C3.06231 7.63855 2.62598 8.85929 2.62598 10.1523V11.1133C2.62598 11.1842 2.64077 11.2547 2.66992 11.3193C2.88593 11.7983 3.04468 12.3302 3.16504 12.8643L3.16602 12.8672C3.40448 13.8918 3.56338 15.3173 3.24512 16.9014L3.24316 16.9082C3.23761 16.9381 3.21859 16.9658 3.19336 16.9814C3.15659 17.0043 3.12105 17.0066 3.09961 17.001L3.09473 16.999L0.594727 16.374C0.554189 16.3639 0.52122 16.3355 0.506836 16.2949C0.49296 16.2556 0.499265 16.2105 0.526367 16.1738L0.529297 16.1699C0.885698 15.6809 1.18945 15.1553 1.45215 14.6299V14.6289C1.91475 13.6996 2.37598 12.473 2.37598 11.25V10.1523C2.37598 8.99567 2.71096 7.89725 3.30176 6.96777C3.3831 6.83981 3.40143 6.68161 3.35254 6.53809C3.30349 6.39447 3.19157 6.28004 3.04883 6.22852L0.787109 5.41211C0.613552 5.3465 0.500977 5.18266 0.500977 5C0.500977 4.81723 0.613369 4.65245 0.787109 4.58691L0.788086 4.58789L11.7441 0.629883C11.9873 0.543758 12.2431 0.5 12.501 0.5Z" stroke="var(--stroke-0, #787878)" stroke-linejoin="round"/>
</svg>
