<svg preserveAspectRatio="none" width="100%" height="100%" overflow="visible" style="display: block;" viewBox="0 0 20 20" fill="none" xmlns="http://www.w3.org/2000/svg">
<g id="Layer_62">
<path id="Shape" fill-rule="evenodd" clip-rule="evenodd" d="M12 4H1C0.447715 4 0 3.55228 0 3C0 2.44772 0.447715 2 1 2H12C12 0.895431 12.8954 0 14 0H16C17.1046 0 18 0.895431 18 2H19C19.5523 2 20 2.44772 20 3C20 3.55228 19.5523 4 19 4H18C18 5.10457 17.1046 6 16 6H14C12.8954 6 12 5.10457 12 4ZM16 2H14V4H16V3V2ZM19 9H10C10 7.89543 9.10457 7 8 7H6C4.89543 7 4 7.89543 4 9H1C0.447715 9 0 9.44771 0 10C0 10.5523 0.447715 11 1 11H4C4 12.1046 4.89543 13 6 13H8C9.10457 13 10 12.1046 10 11H19C19.5523 11 20 10.5523 20 10C20 9.44771 19.5523 9 19 9ZM8 9H6V11H8V10V9ZM19 16H16C16 14.8954 15.1046 14 14 14H12C10.8954 14 10 14.8954 10 16H1C0.447715 16 0 16.4477 0 17C0 17.5523 0.447715 18 1 18H10C10 19.1046 10.8954 20 12 20H14C15.1046 20 16 19.1046 16 18H19C19.5523 18 20 17.5523 20 17C20 16.4477 19.5523 16 19 16ZM14 16H12V18H14V17V16Z" fill="var(--fill-0, white)"/>
</g>
</svg>
