<svg preserveAspectRatio="none" width="100%" height="100%" overflow="visible" style="display: block;" viewBox="0 0 24 28" fill="none" xmlns="http://www.w3.org/2000/svg">
<path id="Vector" d="M14.2246 25.5C14.1031 25.7887 13.9304 26.0533 13.7109 26.2773C13.2556 26.7421 12.6401 27 11.999 27C11.3579 27 10.7415 26.7422 10.2861 26.2773C10.0669 26.0534 9.89493 25.7886 9.77344 25.5H14.2246ZM11.999 1C12.3756 1.00003 12.7129 1.3148 12.7129 1.75V3.61426L13.5107 3.7793C16.9525 4.49168 19.5703 7.6117 19.5703 11.375V12.4033C19.5704 15.219 20.5832 17.9296 22.4131 20.0371L22.415 20.0391L22.8115 20.4932L22.8125 20.4941C23.0052 20.7144 23.056 21.0373 22.9346 21.3115C22.8115 21.5892 22.5527 21.7498 22.2852 21.75H1.71289C1.44062 21.7499 1.18267 21.5855 1.06641 21.3184C0.9432 21.0348 0.996879 20.7097 1.18555 20.4941L1.18652 20.4932L1.58203 20.0391H1.58301L1.58398 20.0371C3.41411 17.9293 4.42769 15.2133 4.42773 12.4033V11.375C4.42773 7.61167 7.04555 4.49164 10.4873 3.7793L11.2852 3.61426V1.75C11.2852 1.31478 11.6224 1 11.999 1Z" stroke="var(--stroke-0, #007D9F)" stroke-width="2"/>
</svg>
