<svg preserveAspectRatio="none" width="100%" height="100%" overflow="visible" style="display: block;" viewBox="0 0 20 22" fill="none" xmlns="http://www.w3.org/2000/svg">
<g id="Frame">
<path id="Vector" d="M2.5 13.2085H5.5C6.31283 13.2085 7 13.8823 7 14.7515V17.8032C7 18.6724 6.31283 19.3472 5.5 19.3472H2.5C1.68717 19.3472 1 18.6724 1 17.8032V14.7515C1 13.8823 1.68717 13.2085 2.5 13.2085ZM14.5 13.2085H17.5C18.3128 13.2085 19 13.8823 19 14.7515V17.8032C19 18.6724 18.3128 19.3472 17.5 19.3472H14.5C13.6872 19.3472 13 18.6724 13 17.8032V14.7515C13 13.8823 13.6872 13.2085 14.5 13.2085ZM2.5 3.03468H5.5C6.31271 3.03468 6.9998 3.70864 7 4.57765V7.63039C6.99983 8.49942 6.31272 9.17335 5.5 9.17335H2.5C1.68728 9.17335 1.00017 8.49942 1 7.63039V4.57765C1.0002 3.70864 1.68729 3.03468 2.5 3.03468ZM14.5 3.03468H17.5C18.3127 3.03468 18.9998 3.70864 19 4.57765V7.63039C18.9998 8.49942 18.3127 9.17335 17.5 9.17335H14.5C13.6873 9.17335 13.0002 8.49942 13 7.63039V4.57765C13.0002 3.70864 13.6873 3.03468 14.5 3.03468Z" stroke="var(--stroke-0, white)" stroke-width="2"/>
</g>
</svg>
