<svg preserveAspectRatio="none" width="100%" height="100%" overflow="visible" style="display: block;" viewBox="0 0 21 24" fill="none" xmlns="http://www.w3.org/2000/svg">
<g id="flask-round-potion" clip-path="url(#clip0_40000319_6710)">
<path id="Vector" d="M9 3H12V7.39219C12 8.81719 12.7922 10.0219 13.8891 10.6594C15.9047 11.8312 17.2453 14.0062 17.25 16.4906C14.5031 16.4109 13.2469 15.9 12.0984 15.4313C11.0672 15.0094 10.1203 14.625 8.25 14.625C6.26719 14.625 4.80938 15.0562 3.82031 15.5062C4.125 13.4391 5.36719 11.6766 7.11094 10.6594C8.20781 10.0219 9 8.81719 9 7.39219V3ZM15 7.39219V3C15.8297 3 16.5 2.32969 16.5 1.5C16.5 0.670312 15.8297 0 15 0H14.25H6.75H6C5.17031 0 4.5 0.670312 4.5 1.5C4.5 2.32969 5.17031 3 6 3V7.39219C6 7.67344 5.84531 7.92656 5.60156 8.06719C2.7 9.75938 0.75 12.9 0.75 16.5C0.75 19.125 1.78594 21.5109 3.47812 23.2641C3.96094 23.7656 4.65469 24 5.35312 24H15.6469C16.35 24 17.0391 23.7656 17.5266 23.2641C19.2141 21.5109 20.25 19.125 20.25 16.5C20.25 12.9 18.3 9.75938 15.3984 8.06719C15.1547 7.92656 15 7.67344 15 7.39219Z" fill="var(--fill-0, white)"/>
</g>
<defs>
<clipPath id="clip0_40000319_6710">
<rect width="21" height="24" fill="white"/>
</clipPath>
</defs>
</svg>
