<svg preserveAspectRatio="none" width="100%" height="100%" overflow="visible" style="display: block;" viewBox="0 0 24 24" fill="none" xmlns="http://www.w3.org/2000/svg">
<g id="folder-user">
<path id="Vector" d="M11.7984 5.98125C12.2906 6.47344 12.9562 6.75 13.6547 6.75H21C21.4125 6.75 21.75 7.0875 21.75 7.5V19.5C21.75 19.9125 21.4125 20.25 21 20.25H17.25C17.25 18.1781 15.5719 16.5 13.5 16.5H10.5C8.42812 16.5 6.75 18.1781 6.75 20.25H3C2.5875 20.25 2.25 19.9125 2.25 19.5V4.5C2.25 4.0875 2.5875 3.75 3 3.75H9.25781C9.45469 3.75 9.64688 3.82969 9.7875 3.97031L11.7984 5.98125ZM13.3875 4.39219L11.3766 2.37656C10.8141 1.81406 10.05 1.5 9.25312 1.5H3C1.34531 1.5 0 2.84531 0 4.5V19.5C0 21.1547 1.34531 22.5 3 22.5H21C22.6547 22.5 24 21.1547 24 19.5V7.5C24 5.84531 22.6547 4.5 21 4.5H13.6547C13.5562 4.5 13.4578 4.4625 13.3875 4.39219ZM15 12C15 11.2044 14.6839 10.4413 14.1213 9.87868C13.5587 9.31607 12.7956 9 12 9C11.2044 9 10.4413 9.31607 9.87868 9.87868C9.31607 10.4413 9 11.2044 9 12C9 12.7956 9.31607 13.5587 9.87868 14.1213C10.4413 14.6839 11.2044 15 12 15C12.7956 15 13.5587 14.6839 14.1213 14.1213C14.6839 13.5587 15 12.7956 15 12Z" fill="var(--fill-0, #007D9F)"/>
</g>
</svg>
