<svg preserveAspectRatio="none" width="100%" height="100%" overflow="visible" style="display: block;" viewBox="0 0 14 17" fill="none" xmlns="http://www.w3.org/2000/svg">
<path id="Vector" d="M7.00001 17C7.1165 17 7.32829 16.9574 7.56126 16.8298C12.3162 14.2128 14 13.0213 14 9.87234V3.46809C14 2.59575 13.587 2.3298 12.9304 2.04255C12.0726 1.67021 8.56732 0.425528 7.70952 0.127675C7.48713 0.0532058 7.24357 0 7.00001 0C6.75643 0 6.50226 0.0744701 6.29048 0.127675C5.43268 0.340427 1.92738 1.68086 1.06958 2.04255C0.413012 2.31914 0 2.59575 0 3.46809V9.87234C0 13.0213 1.6838 14.2021 6.43874 16.8298C6.67171 16.9574 6.8835 17 7.00001 17ZM7.28593 1.59574C8.63087 2.13831 10.8865 2.93618 12.2738 3.40426C12.4539 3.46809 12.4856 3.56382 12.4856 3.75531V9.49999C12.4856 12.0851 11.3525 12.766 7.52951 15.0638C7.26476 15.2234 7.13767 15.2553 7.0106 15.2553V1.54256C7.08473 1.54256 7.18002 1.55319 7.28593 1.59574Z" fill="var(--fill-0, #737373)"/>
</svg>
