<svg preserveAspectRatio="none" width="100%" height="100%" overflow="visible" style="display: block;" viewBox="0 0 9 13" fill="none" xmlns="http://www.w3.org/2000/svg">
<g id="Medium-S">
<path id="Vector" d="M1.31774 13.0021H7.63117C8.51522 13.0021 8.94889 12.5685 8.94889 11.6094V6.75543C8.94889 5.90476 8.5986 5.46274 7.89805 5.37933V3.72799C7.89805 1.1676 6.17999 0 4.47861 0C2.76891 0 1.05919 1.1676 1.05919 3.72799V5.40435C0.400332 5.52945 0 5.96314 0 6.75543V11.6094C0 12.5685 0.442025 13.0021 1.31774 13.0021ZM2.43531 3.57787C2.43531 2.08501 3.38608 1.31772 4.47861 1.31772C5.56283 1.31772 6.52193 2.08501 6.52193 3.57787V5.36264L2.43531 5.371V3.57787Z" fill="var(--fill-0, #9E9E9E)"/>
</g>
</svg>
