<svg preserveAspectRatio="none" width="100%" height="100%" overflow="visible" style="display: block;" viewBox="0 0 27 27" fill="none" xmlns="http://www.w3.org/2000/svg">
<g id="Layer_41">
<path id="Shape" fill-rule="evenodd" clip-rule="evenodd" d="M13.3333 26.6667C5.96954 26.6667 0 20.6971 0 13.3333C0 5.96954 5.96954 0 13.3333 0C16.8696 0 20.2609 1.40476 22.7614 3.90524C25.2619 6.40573 26.6667 9.79711 26.6667 13.3333C26.6667 20.6971 20.6971 26.6667 13.3333 26.6667ZM21.3333 13.3333C21.3333 14.0697 20.7364 14.6667 20 14.6667H14.6667V20C14.6667 20.7364 14.0697 21.3333 13.3333 21.3333C12.597 21.3333 12 20.7364 12 20V14.6667H6.66667C5.93029 14.6667 5.33333 14.0697 5.33333 13.3333C5.33333 12.597 5.93029 12 6.66667 12H12V6.66667C12 5.93029 12.597 5.33333 13.3333 5.33333C14.0697 5.33333 14.6667 5.93029 14.6667 6.66667V12H20C20.7364 12 21.3333 12.597 21.3333 13.3333ZM13.3333 2.66667C19.2244 2.66667 24 7.4423 24 13.3333C24 16.1623 22.8762 18.8754 20.8758 20.8758C18.8754 22.8762 16.1623 24 13.3333 24C7.4423 24 2.66667 19.2244 2.66667 13.3333C2.66667 7.4423 7.4423 2.66667 13.3333 2.66667Z" fill="var(--fill-0, #007D9F)"/>
</g>
</svg>
