<svg preserveAspectRatio="none" width="100%" height="100%" overflow="visible" style="display: block;" viewBox="0 0 30 24" fill="none" xmlns="http://www.w3.org/2000/svg">
<g id="dice" clip-path="url(#clip0_40000319_6723)">
<path id="Vector" d="M12.8859 1.60781C11.5688 0.290625 9.43125 0.290625 8.11406 1.60781L1.60781 8.11406C0.290625 9.43125 0.290625 11.5687 1.60781 12.8859L8.11406 19.3922C9.43125 20.7094 11.5688 20.7094 12.8859 19.3922L19.3922 12.8859C20.7094 11.5687 20.7094 9.43125 19.3922 8.11406L12.8859 1.60781ZM9.375 10.5C9.375 10.2016 9.49353 9.91548 9.70451 9.7045C9.91548 9.49353 10.2016 9.375 10.5 9.375C10.7984 9.375 11.0845 9.49353 11.2955 9.7045C11.5065 9.91548 11.625 10.2016 11.625 10.5C11.625 10.7984 11.5065 11.0845 11.2955 11.2955C11.0845 11.5065 10.7984 11.625 10.5 11.625C10.2016 11.625 9.91548 11.5065 9.70451 11.2955C9.49353 11.0845 9.375 10.7984 9.375 10.5ZM4.5 9.375C4.79837 9.375 5.08452 9.49353 5.2955 9.7045C5.50647 9.91548 5.625 10.2016 5.625 10.5C5.625 10.7984 5.50647 11.0845 5.2955 11.2955C5.08452 11.5065 4.79837 11.625 4.5 11.625C4.20163 11.625 3.91548 11.5065 3.7045 11.2955C3.49353 11.0845 3.375 10.7984 3.375 10.5C3.375 10.2016 3.49353 9.91548 3.7045 9.7045C3.91548 9.49353 4.20163 9.375 4.5 9.375ZM10.5 17.625C10.2016 17.625 9.91548 17.5065 9.70451 17.2955C9.49353 17.0845 9.375 16.7984 9.375 16.5C9.375 16.2016 9.49353 15.9155 9.70451 15.7045C9.91548 15.4935 10.2016 15.375 10.5 15.375C10.7984 15.375 11.0845 15.4935 11.2955 15.7045C11.5065 15.9155 11.625 16.2016 11.625 16.5C11.625 16.7984 11.5065 17.0845 11.2955 17.2955C11.0845 17.5065 10.7984 17.625 10.5 17.625ZM16.5 9.375C16.7984 9.375 17.0845 9.49353 17.2955 9.7045C17.5065 9.91548 17.625 10.2016 17.625 10.5C17.625 10.7984 17.5065 11.0845 17.2955 11.2955C17.0845 11.5065 16.7984 11.625 16.5 11.625C16.2016 11.625 15.9155 11.5065 15.7045 11.2955C15.4935 11.0845 15.375 10.7984 15.375 10.5C15.375 10.2016 15.4935 9.91548 15.7045 9.7045C15.9155 9.49353 16.2016 9.375 16.5 9.375ZM10.5 5.625C10.2016 5.625 9.91548 5.50647 9.70451 5.2955C9.49353 5.08452 9.375 4.79837 9.375 4.5C9.375 4.20163 9.49353 3.91548 9.70451 3.7045C9.91548 3.49353 10.2016 3.375 10.5 3.375C10.7984 3.375 11.0845 3.49353 11.2955 3.7045C11.5065 3.91548 11.625 4.20163 11.625 4.5C11.625 4.79837 11.5065 5.08452 11.2955 5.2955C11.0845 5.50647 10.7984 5.625 10.5 5.625ZM15 21C15 22.6547 16.3453 24 18 24H27C28.6547 24 30 22.6547 30 21V12C30 10.3453 28.6547 9 27 9H21.6422C22.1859 10.6875 21.7875 12.6094 20.4516 13.9453L15 19.3969V21ZM22.5 15.375C22.7984 15.375 23.0845 15.4935 23.2955 15.7045C23.5065 15.9155 23.625 16.2016 23.625 16.5C23.625 16.7984 23.5065 17.0845 23.2955 17.2955C23.0845 17.5065 22.7984 17.625 22.5 17.625C22.2016 17.625 21.9155 17.5065 21.7045 17.2955C21.4935 17.0845 21.375 16.7984 21.375 16.5C21.375 16.2016 21.4935 15.9155 21.7045 15.7045C21.9155 15.4935 22.2016 15.375 22.5 15.375Z" fill="var(--fill-0, #007D9F)"/>
</g>
<defs>
<clipPath id="clip0_40000319_6723">
<rect width="30" height="24" fill="white"/>
</clipPath>
</defs>
</svg>
